solid Tapa_00
facet normal 0.0 0.0 -1.0
  outer loop
    vertex 59.99999999999998 98.0 0.0
    vertex 4.000000000000014 0.0 0.0
    vertex 4.000000000000014 98.0 0.0
  endloop
endfacet
facet normal 0.0 0.0 -1.0
  outer loop
    vertex 4.000000000000014 0.0 0.0
    vertex 59.99999999999998 98.0 0.0
    vertex 59.99999999999998 0.0 0.0
  endloop
endfacet
facet normal 5.380255040431436e-16 3.3944826753510524e-17 1.0
  outer loop
    vertex 63.99999999999999 0.0 27.0
    vertex 57.999999999999986 2.000000000000001 27.0
    vertex 57.999999999999986 2.537884411217195e-13 27.000000000000014
  endloop
endfacet
facet normal 5.380255040431436e-16 3.3944826753510524e-17 1.0
  outer loop
    vertex 57.999999999999986 2.000000000000001 27.0
    vertex 63.99999999999999 0.0 27.0
    vertex 57.999999999999986 62.0 27.0
  endloop
endfacet
facet normal 5.380255040431436e-16 3.3944826753510524e-17 1.0
  outer loop
    vertex 57.999999999999986 62.0 27.0
    vertex 63.99999999999999 0.0 27.0
    vertex 63.99999999999999 62.0 27.0
  endloop
endfacet
facet normal -1.0 0.0 0.0
  outer loop
    vertex 0.0 98.0 27.0
    vertex 0.0 0.0 14.000000000000005
    vertex 0.0 0.0 27.0
  endloop
endfacet
facet normal -1.0 0.0 0.0
  outer loop
    vertex 0.0 0.0 14.000000000000005
    vertex 0.0 98.0 27.0
    vertex 0.0 98.0 14.000000000000005
  endloop
endfacet
facet normal 1.0 -0.0 -0.0
  outer loop
    vertex 63.99999999999999 62.0 14.000000000000005
    vertex 63.99999999999999 0.0 27.0
    vertex 63.99999999999999 0.0 14.000000000000005
  endloop
endfacet
facet normal 1.0 -0.0 -0.0
  outer loop
    vertex 63.99999999999999 0.0 27.0
    vertex 63.99999999999999 62.0 14.000000000000005
    vertex 63.99999999999999 62.0 27.0
  endloop
endfacet
facet normal 2.2076561285127353e-17 -1.0 1.0578847243113792e-14
  outer loop
    vertex 59.99999999999998 0.0 14.000000000000005
    vertex 4.000000000000014 0.0 0.0
    vertex 59.99999999999998 0.0 0.0
  endloop
endfacet
facet normal 2.2076561285127353e-17 -1.0 1.0578847243113792e-14
  outer loop
    vertex 4.000000000000014 0.0 0.0
    vertex 59.99999999999998 0.0 14.000000000000005
    vertex 4.000000000000014 0.0 14.000000000000005
  endloop
endfacet
facet normal 2.2076561285127353e-17 -1.0 1.0578847243113792e-14
  outer loop
    vertex 63.99999999999999 0.0 27.0
    vertex 59.99999999999998 0.0 14.000000000000005
    vertex 63.99999999999999 0.0 14.000000000000005
  endloop
endfacet
facet normal 2.2076561285127353e-17 -1.0 1.0578847243113792e-14
  outer loop
    vertex 59.99999999999998 0.0 14.000000000000005
    vertex 63.99999999999999 0.0 27.0
    vertex 4.000000000000014 0.0 14.000000000000005
  endloop
endfacet
facet normal 2.2076561285127353e-17 -1.0 1.0578847243113792e-14
  outer loop
    vertex 4.000000000000014 0.0 14.000000000000005
    vertex 63.99999999999999 0.0 27.0
    vertex 38.77384466726123 2.527394959983553e-13 21.58243024837005
  endloop
endfacet
facet normal 2.2076561285127353e-17 -1.0 1.0578847243113792e-14
  outer loop
    vertex 4.000000000000014 0.0 14.000000000000005
    vertex 38.77384466726123 2.527394959983553e-13 21.58243024837005
    vertex 0.0 0.0 14.000000000000005
  endloop
endfacet
facet normal 2.2076561285127353e-17 -1.0 1.0578847243113792e-14
  outer loop
    vertex 0.0 0.0 14.000000000000005
    vertex 38.77384466726123 2.527394959983553e-13 21.58243024837005
    vertex 35.399418941907584 2.527394959983553e-13 21.145875688995027
  endloop
endfacet
facet normal 2.2076561285127353e-17 -1.0 1.0578847243113792e-14
  outer loop
    vertex 0.0 0.0 14.000000000000005
    vertex 35.399418941907584 2.527394959983553e-13 21.145875688995027
    vertex 32.00000000000003 2.523870001880368e-13 20.999999999999996
  endloop
endfacet
facet normal 2.2076561285127353e-17 -1.0 1.0578847243113792e-14
  outer loop
    vertex 38.77384466726123 2.527394959983553e-13 21.58243024837005
    vertex 63.99999999999999 0.0 27.0
    vertex 42.09846771469712 2.527394959983553e-13 22.306454040588044
  endloop
endfacet
facet normal 2.2076561285127353e-17 -1.0 1.0578847243113792e-14
  outer loop
    vertex 42.09846771469712 2.527394959983553e-13 22.306454040588044
    vertex 63.99999999999999 0.0 27.0
    vertex 45.34884478222612 2.530919918086738e-13 23.312623896090223
  endloop
endfacet
facet normal 2.2076561285127353e-17 -1.0 1.0578847243113792e-14
  outer loop
    vertex 45.34884478222612 2.530919918086738e-13 23.312623896090223
    vertex 63.99999999999999 0.0 27.0
    vertex 48.50107843934056 2.530919918086738e-13 24.593542250316794
  endloop
endfacet
facet normal 2.2076561285127353e-17 -1.0 1.0578847243113792e-14
  outer loop
    vertex 48.50107843934056 2.530919918086738e-13 24.593542250316794
    vertex 63.99999999999999 0.0 27.0
    vertex 51.53199282576343 2.530919918086738e-13 26.139791532099814
  endloop
endfacet
facet normal 2.2076561285127353e-17 -1.0 1.0578847243113792e-14
  outer loop
    vertex 51.53199282576343 2.530919918086738e-13 26.139791532099814
    vertex 63.99999999999999 0.0 27.0
    vertex 53.692730339813146 2.527394959983553e-13 26.389723176776243
  endloop
endfacet
facet normal 2.2076561285127353e-17 -1.0 1.0578847243113792e-14
  outer loop
    vertex 53.692730339813146 2.527394959983553e-13 26.389723176776243
    vertex 63.99999999999999 0.0 27.0
    vertex 57.999999999999986 2.537884411217195e-13 27.000000000000014
  endloop
endfacet
facet normal 2.2076561285127353e-17 -1.0 1.0578847243113792e-14
  outer loop
    vertex 0.0 0.0 14.000000000000005
    vertex 25.22615533273883 2.5203450437771835e-13 21.582430248370077
    vertex 0.0 0.0 27.0
  endloop
endfacet
facet normal 2.2076561285127353e-17 -1.0 1.0578847243113792e-14
  outer loop
    vertex 25.22615533273883 2.5203450437771835e-13 21.582430248370077
    vertex 0.0 0.0 14.000000000000005
    vertex 28.60058105809248 2.523870001880368e-13 21.14587568899504
  endloop
endfacet
facet normal 2.2076561285127353e-17 -1.0 1.0578847243113792e-14
  outer loop
    vertex 28.60058105809248 2.523870001880368e-13 21.14587568899504
    vertex 0.0 0.0 14.000000000000005
    vertex 32.00000000000003 2.523870001880368e-13 20.999999999999996
  endloop
endfacet
facet normal 2.2076561285127353e-17 -1.0 1.0578847243113792e-14
  outer loop
    vertex 0.0 0.0 27.0
    vertex 25.22615533273883 2.5203450437771835e-13 21.582430248370077
    vertex 21.901532285302945 2.5168200856739984e-13 22.306454040588083
  endloop
endfacet
facet normal 2.2076561285127353e-17 -1.0 1.0578847243113792e-14
  outer loop
    vertex 0.0 0.0 27.0
    vertex 21.901532285302945 2.5168200856739984e-13 22.306454040588083
    vertex 18.651155217773955 2.5168200856739984e-13 23.312623896090265
  endloop
endfacet
facet normal 2.2076561285127353e-17 -1.0 1.0578847243113792e-14
  outer loop
    vertex 0.0 0.0 27.0
    vertex 18.651155217773955 2.5168200856739984e-13 23.312623896090265
    vertex 15.498921560659516 2.513295127570814e-13 24.593542250316844
  endloop
endfacet
facet normal 2.2076561285127353e-17 -1.0 1.0578847243113792e-14
  outer loop
    vertex 0.0 0.0 27.0
    vertex 15.498921560659516 2.513295127570814e-13 24.593542250316844
    vertex 12.468007174236645 2.509770169467629e-13 26.139791532099874
  endloop
endfacet
facet normal 2.2076561285127353e-17 -1.0 1.0578847243113792e-14
  outer loop
    vertex 0.0 0.0 27.0
    vertex 12.468007174236645 2.509770169467629e-13 26.139791532099874
    vertex 10.307269660186883 2.499195295158074e-13 26.389723176776222
  endloop
endfacet
facet normal 2.2076561285127353e-17 -1.0 1.0578847243113792e-14
  outer loop
    vertex 0.0 0.0 27.0
    vertex 10.307269660186883 2.499195295158074e-13 26.389723176776222
    vertex 6.000000000000003 2.5062452113644437e-13 27.000000000000014
  endloop
endfacet
facet normal -1.6083058915813333e-15 -1.5954068574149996e-17 1.0
  outer loop
    vertex 6.000000000000003 2.5062452113644437e-13 27.000000000000014
    vertex 0.0 98.0 27.0
    vertex 0.0 0.0 27.0
  endloop
endfacet
facet normal -1.6083058915813333e-15 -1.5954068574149996e-17 1.0
  outer loop
    vertex 0.0 98.0 27.0
    vertex 6.000000000000003 2.5062452113644437e-13 27.000000000000014
    vertex 6.000000000000003 1.9999999999999978 27.000000000000007
  endloop
endfacet
facet normal -1.6083058915813333e-15 -1.5954068574149996e-17 1.0
  outer loop
    vertex 0.0 98.0 27.0
    vertex 6.000000000000003 1.9999999999999978 27.000000000000007
    vertex 6.0000000000000115 98.0 27.000000000000014
  endloop
endfacet
facet normal 1.62690373993148e-16 -2.937465085987394e-17 1.0
  outer loop
    vertex 58.499999999999986 1.9999999999999984 2.0000000000000018
    vertex 5.5000000000000115 98.0 2.000000000000013
    vertex 5.500000000000007 1.9999999999999984 2.000000000000007
  endloop
endfacet
facet normal 1.62690373993148e-16 -2.937465085987394e-17 1.0
  outer loop
    vertex 5.5000000000000115 98.0 2.000000000000013
    vertex 58.499999999999986 1.9999999999999984 2.0000000000000018
    vertex 58.499999999999986 98.0 2.0000000000000018
  endloop
endfacet
facet normal 1.62690373993148e-16 -2.937465085987394e-17 1.0
  outer loop
    vertex 58.499999999999986 98.0 2.0000000000000018
    vertex 58.499999999999986 1.9999999999999984 2.0000000000000018
    vertex 58.499999999999986 62.0 2.0000000000000018
  endloop
endfacet
facet normal -1.0 -1.174986034394957e-16 -5.639932965095797e-15
  outer loop
    vertex 57.999999999999986 2.000000000000001 27.0
    vertex 57.999999999999986 62.0 25.000000000000004
    vertex 58.00000000000001 1.9999999999999978 25.000000000000004
  endloop
endfacet
facet normal -1.0 -1.174986034394957e-16 -5.639932965095797e-15
  outer loop
    vertex 57.999999999999986 62.0 25.000000000000004
    vertex 57.999999999999986 2.000000000000001 27.0
    vertex 57.999999999999986 62.0 27.0
  endloop
endfacet
facet normal -0.0 1.0 -0.0
  outer loop
    vertex 0.0 98.0 14.000000000000005
    vertex 1.4999999999999978 98.0 16.000000000000004
    vertex 4.000000000000014 98.0 14.000000000000005
  endloop
endfacet
facet normal -0.0 1.0 -0.0
  outer loop
    vertex 1.4999999999999978 98.0 16.000000000000004
    vertex 0.0 98.0 14.000000000000005
    vertex 0.0 98.0 27.0
  endloop
endfacet
facet normal -0.0 1.0 -0.0
  outer loop
    vertex 1.4999999999999978 98.0 16.000000000000004
    vertex 0.0 98.0 27.0
    vertex 1.4999999999999978 98.0 25.000000000000004
  endloop
endfacet
facet normal -0.0 1.0 -0.0
  outer loop
    vertex 1.4999999999999978 98.0 25.000000000000004
    vertex 0.0 98.0 27.0
    vertex 6.0000000000000115 98.0 25.000000000000004
  endloop
endfacet
facet normal -0.0 1.0 -0.0
  outer loop
    vertex 6.0000000000000115 98.0 25.000000000000004
    vertex 0.0 98.0 27.0
    vertex 6.0000000000000115 98.0 27.000000000000014
  endloop
endfacet
facet normal -0.0 1.0 -0.0
  outer loop
    vertex 4.000000000000014 98.0 0.0
    vertex 5.5000000000000115 98.0 2.000000000000013
    vertex 59.99999999999998 98.0 0.0
  endloop
endfacet
facet normal -0.0 1.0 -0.0
  outer loop
    vertex 5.5000000000000115 98.0 2.000000000000013
    vertex 4.000000000000014 98.0 0.0
    vertex 4.000000000000014 98.0 14.000000000000005
  endloop
endfacet
facet normal -0.0 1.0 -0.0
  outer loop
    vertex 59.99999999999998 98.0 0.0
    vertex 5.5000000000000115 98.0 2.000000000000013
    vertex 58.499999999999986 98.0 2.0000000000000018
  endloop
endfacet
facet normal -0.0 1.0 -0.0
  outer loop
    vertex 5.5000000000000115 98.0 2.000000000000013
    vertex 4.000000000000014 98.0 14.000000000000005
    vertex 5.5000000000000115 98.0 16.000000000000004
  endloop
endfacet
facet normal -0.0 1.0 -0.0
  outer loop
    vertex 5.5000000000000115 98.0 16.000000000000004
    vertex 4.000000000000014 98.0 14.000000000000005
    vertex 1.4999999999999978 98.0 16.000000000000004
  endloop
endfacet
facet normal -0.0 1.0 -0.0
  outer loop
    vertex 59.99999999999998 98.0 2.0000000000000018
    vertex 59.99999999999998 98.0 0.0
    vertex 58.499999999999986 98.0 2.0000000000000018
  endloop
endfacet
facet normal 1.0 -0.0 -0.0
  outer loop
    vertex 59.99999999999998 0.0 0.0
    vertex 59.99999999999998 62.0 2.0000000000000018
    vertex 59.99999999999998 0.0 14.000000000000005
  endloop
endfacet
facet normal 1.0 -0.0 -0.0
  outer loop
    vertex 59.99999999999998 62.0 2.0000000000000018
    vertex 59.99999999999998 0.0 0.0
    vertex 59.99999999999998 98.0 0.0
  endloop
endfacet
facet normal 1.0 -0.0 -0.0
  outer loop
    vertex 59.99999999999998 62.0 2.0000000000000018
    vertex 59.99999999999998 98.0 0.0
    vertex 59.99999999999998 98.0 2.0000000000000018
  endloop
endfacet
facet normal 1.0 -0.0 -0.0
  outer loop
    vertex 59.99999999999998 62.0 14.000000000000005
    vertex 59.99999999999998 0.0 14.000000000000005
    vertex 59.99999999999998 62.0 2.0000000000000018
  endloop
endfacet
facet normal 0.0 0.0 -1.0
  outer loop
    vertex 63.99999999999999 62.0 14.000000000000005
    vertex 59.99999999999998 0.0 14.000000000000005
    vertex 59.99999999999998 62.0 14.000000000000005
  endloop
endfacet
facet normal 0.0 0.0 -1.0
  outer loop
    vertex 59.99999999999998 0.0 14.000000000000005
    vertex 63.99999999999999 62.0 14.000000000000005
    vertex 63.99999999999999 0.0 14.000000000000005
  endloop
endfacet
facet normal 0.0 0.0 -1.0
  outer loop
    vertex 4.000000000000014 98.0 14.000000000000005
    vertex 0.0 0.0 14.000000000000005
    vertex 0.0 98.0 14.000000000000005
  endloop
endfacet
facet normal 0.0 0.0 -1.0
  outer loop
    vertex 0.0 0.0 14.000000000000005
    vertex 4.000000000000014 98.0 14.000000000000005
    vertex 4.000000000000014 0.0 14.000000000000005
  endloop
endfacet
facet normal -1.0 0.0 0.0
  outer loop
    vertex 4.000000000000014 98.0 14.000000000000005
    vertex 4.000000000000014 0.0 0.0
    vertex 4.000000000000014 0.0 14.000000000000005
  endloop
endfacet
facet normal -1.0 0.0 0.0
  outer loop
    vertex 4.000000000000014 0.0 0.0
    vertex 4.000000000000014 98.0 14.000000000000005
    vertex 4.000000000000014 98.0 0.0
  endloop
endfacet
facet normal -1.3460773764976015e-32 -2.9374650859873934e-17 1.0
  outer loop
    vertex 5.4999999999999964 2.000000000000001 16.0
    vertex 1.4999999999999978 98.0 16.000000000000004
    vertex 1.4999999999999967 1.9999999999999996 16.0
  endloop
endfacet
facet normal -1.3460773764976015e-32 -2.9374650859873934e-17 1.0
  outer loop
    vertex 1.4999999999999978 98.0 16.000000000000004
    vertex 5.4999999999999964 2.000000000000001 16.0
    vertex 5.5000000000000115 98.0 16.000000000000004
  endloop
endfacet
facet normal 1.0 -9.179578393710603e-18 -1.9583100573249293e-17
  outer loop
    vertex 1.4999999999999967 1.9999999999999996 16.0
    vertex 1.4999999999999978 98.0 25.000000000000004
    vertex 1.4999999999999971 1.9999999999999978 25.000000000000004
  endloop
endfacet
facet normal 1.0 -9.179578393710603e-18 -1.9583100573249293e-17
  outer loop
    vertex 1.4999999999999978 98.0 25.000000000000004
    vertex 1.4999999999999967 1.9999999999999996 16.0
    vertex 1.4999999999999978 98.0 16.000000000000004
  endloop
endfacet
facet normal 0.0 0.0 -1.0
  outer loop
    vertex 1.4999999999999978 98.0 25.000000000000004
    vertex 5.9999999999999964 1.9999999999999991 25.000000000000004
    vertex 1.4999999999999971 1.9999999999999978 25.000000000000004
  endloop
endfacet
facet normal 0.0 0.0 -1.0
  outer loop
    vertex 5.9999999999999964 1.9999999999999991 25.000000000000004
    vertex 1.4999999999999978 98.0 25.000000000000004
    vertex 6.0000000000000115 98.0 25.000000000000004
  endloop
endfacet
facet normal 1.0 -1.0281127800955878e-16 4.0285235464969995e-16
  outer loop
    vertex 5.5000000000000115 98.0 2.000000000000013
    vertex 5.4999999999999964 2.000000000000001 16.0
    vertex 5.500000000000007 1.9999999999999984 2.000000000000007
  endloop
endfacet
facet normal 1.0 -1.0281127800955878e-16 4.0285235464969995e-16
  outer loop
    vertex 5.4999999999999964 2.000000000000001 16.0
    vertex 5.5000000000000115 98.0 2.000000000000013
    vertex 5.5000000000000115 98.0 16.000000000000004
  endloop
endfacet
facet normal 0.0 0.0 -1.0
  outer loop
    vertex 62.5 62.0 25.000000000000004
    vertex 58.00000000000001 1.9999999999999978 25.000000000000004
    vertex 57.999999999999986 62.0 25.000000000000004
  endloop
endfacet
facet normal 0.0 0.0 -1.0
  outer loop
    vertex 58.00000000000001 1.9999999999999978 25.000000000000004
    vertex 62.5 62.0 25.000000000000004
    vertex 62.5 1.9999999999999978 25.000000000000004
  endloop
endfacet
facet normal -0.0 -0.0 1.0
  outer loop
    vertex 58.50000000000001 1.9999999999999971 16.000000000000004
    vertex 62.5 62.0 16.000000000000004
    vertex 58.499999999999986 62.0 16.000000000000004
  endloop
endfacet
facet normal -0.0 -0.0 1.0
  outer loop
    vertex 62.5 62.0 16.000000000000004
    vertex 58.50000000000001 1.9999999999999971 16.000000000000004
    vertex 62.5 1.9999999999999971 16.000000000000004
  endloop
endfacet
facet normal -1.0 0.0 0.0
  outer loop
    vertex 62.5 1.9999999999999978 25.000000000000004
    vertex 62.5 62.0 16.000000000000004
    vertex 62.5 1.9999999999999971 16.000000000000004
  endloop
endfacet
facet normal -1.0 0.0 0.0
  outer loop
    vertex 62.5 62.0 16.000000000000004
    vertex 62.5 1.9999999999999978 25.000000000000004
    vertex 62.5 62.0 25.000000000000004
  endloop
endfacet
facet normal -1.0 -1.1749860343949574e-16 8.057047092993991e-16
  outer loop
    vertex 58.499999999999986 62.0 16.000000000000004
    vertex 58.499999999999986 1.9999999999999984 2.0000000000000018
    vertex 58.50000000000001 1.9999999999999971 16.000000000000004
  endloop
endfacet
facet normal -1.0 -1.1749860343949574e-16 8.057047092993991e-16
  outer loop
    vertex 58.499999999999986 1.9999999999999984 2.0000000000000018
    vertex 58.499999999999986 62.0 16.000000000000004
    vertex 58.499999999999986 62.0 2.0000000000000018
  endloop
endfacet
facet normal 1.0 -1.2484226615446415e-16 -1.7624790515924267e-15
  outer loop
    vertex 5.9999999999999964 1.9999999999999991 25.000000000000004
    vertex 6.0000000000000115 98.0 27.000000000000014
    vertex 6.000000000000003 1.9999999999999978 27.000000000000007
  endloop
endfacet
facet normal 1.0 -1.2484226615446415e-16 -1.7624790515924267e-15
  outer loop
    vertex 6.0000000000000115 98.0 27.000000000000014
    vertex 5.9999999999999964 1.9999999999999991 25.000000000000004
    vertex 6.0000000000000115 98.0 25.000000000000004
  endloop
endfacet
facet normal 0.1149034813215536 1.4009808408896233e-15 0.993376660678208
  outer loop
    vertex 12.468007174236645 2.509770169467629e-13 26.139791532099874
    vertex 10.307269660186883 1.9999999999999971 26.389723176776215
    vertex 10.307269660186883 2.499195295158074e-13 26.389723176776222
  endloop
endfacet
facet normal 0.1149034813215536 1.4009808408896233e-15 0.993376660678208
  outer loop
    vertex 10.307269660186883 1.9999999999999971 26.389723176776215
    vertex 12.468007174236645 2.509770169467629e-13 26.139791532099874
    vertex 12.468007174236645 1.9999999999999971 26.139791532099874
  endloop
endfacet
facet normal -0.1149034813215945 1.4017578789426423e-15 0.9933766606782033
  outer loop
    vertex 53.692730339813146 2.527394959983553e-13 26.389723176776243
    vertex 51.53199282576343 1.9999999999999991 26.139791532099814
    vertex 51.53199282576343 2.530919918086738e-13 26.139791532099814
  endloop
endfacet
facet normal -0.1149034813215945 1.4017578789426423e-15 0.9933766606782033
  outer loop
    vertex 51.53199282576343 1.9999999999999991 26.139791532099814
    vertex 53.692730339813146 2.527394959983553e-13 26.389723176776243
    vertex 53.692730339813146 1.9999999999999998 26.389723176776236
  endloop
endfacet
facet normal 0.14028421980953995 2.7916358264971465e-15 0.9901112753990983
  outer loop
    vertex 10.307269660186883 2.499195295158074e-13 26.389723176776222
    vertex 6.000000000000003 1.9999999999999978 27.000000000000007
    vertex 6.000000000000003 2.5062452113644437e-13 27.000000000000014
  endloop
endfacet
facet normal 0.14028421980953995 2.7916358264971465e-15 0.9901112753990983
  outer loop
    vertex 6.000000000000003 1.9999999999999978 27.000000000000007
    vertex 10.307269660186883 2.499195295158074e-13 26.389723176776222
    vertex 10.307269660186883 1.9999999999999971 26.389723176776215
  endloop
endfacet
facet normal -0.14028421980953548 4.182547412271843e-15 0.9901112753990987
  outer loop
    vertex 57.999999999999986 2.537884411217195e-13 27.000000000000014
    vertex 53.692730339813146 1.9999999999999998 26.389723176776236
    vertex 53.692730339813146 2.527394959983553e-13 26.389723176776243
  endloop
endfacet
facet normal -0.14028421980953548 4.182547412271843e-15 0.9901112753990987
  outer loop
    vertex 53.692730339813146 1.9999999999999998 26.389723176776236
    vertex 57.999999999999986 2.537884411217195e-13 27.000000000000014
    vertex 57.999999999999986 2.000000000000001 27.0
  endloop
endfacet
facet normal -2.8667482967134688e-18 1.0 3.510840882207425e-18
  outer loop
    vertex 5.500000000000007 1.9999999999999984 2.000000000000007
    vertex 58.50000000000001 1.9999999999999971 16.000000000000004
    vertex 58.499999999999986 1.9999999999999984 2.0000000000000018
  endloop
endfacet
facet normal -2.8667482967134688e-18 1.0 3.510840882207425e-18
  outer loop
    vertex 58.50000000000001 1.9999999999999971 16.000000000000004
    vertex 5.500000000000007 1.9999999999999984 2.000000000000007
    vertex 5.4999999999999964 2.000000000000001 16.0
  endloop
endfacet
facet normal -2.8667482967134688e-18 1.0 3.510840882207425e-18
  outer loop
    vertex 1.4999999999999971 1.9999999999999978 25.000000000000004
    vertex 5.4999999999999964 2.000000000000001 16.0
    vertex 1.4999999999999967 1.9999999999999996 16.0
  endloop
endfacet
facet normal -2.8667482967134688e-18 1.0 3.510840882207425e-18
  outer loop
    vertex 5.4999999999999964 2.000000000000001 16.0
    vertex 1.4999999999999971 1.9999999999999978 25.000000000000004
    vertex 58.50000000000001 1.9999999999999971 16.000000000000004
  endloop
endfacet
facet normal -2.8667482967134688e-18 1.0 3.510840882207425e-18
  outer loop
    vertex 58.50000000000001 1.9999999999999971 16.000000000000004
    vertex 1.4999999999999971 1.9999999999999978 25.000000000000004
    vertex 62.5 1.9999999999999971 16.000000000000004
  endloop
endfacet
facet normal -2.8667482967134688e-18 1.0 3.510840882207425e-18
  outer loop
    vertex 62.5 1.9999999999999971 16.000000000000004
    vertex 1.4999999999999971 1.9999999999999978 25.000000000000004
    vertex 25.22615533273883 1.999999999999998 21.582430248370077
  endloop
endfacet
facet normal -2.8667482967134688e-18 1.0 3.510840882207425e-18
  outer loop
    vertex 62.5 1.9999999999999971 16.000000000000004
    vertex 25.22615533273883 1.999999999999998 21.582430248370077
    vertex 28.60058105809248 1.9999999999999984 21.14587568899504
  endloop
endfacet
facet normal -2.8667482967134688e-18 1.0 3.510840882207425e-18
  outer loop
    vertex 62.5 1.9999999999999971 16.000000000000004
    vertex 28.60058105809248 1.9999999999999984 21.14587568899504
    vertex 32.00000000000003 1.9999999999999984 20.999999999999996
  endloop
endfacet
facet normal -2.8667482967134688e-18 1.0 3.510840882207425e-18
  outer loop
    vertex 25.22615533273883 1.999999999999998 21.582430248370077
    vertex 1.4999999999999971 1.9999999999999978 25.000000000000004
    vertex 21.901532285302945 1.9999999999999978 22.306454040588083
  endloop
endfacet
facet normal -2.8667482967134688e-18 1.0 3.510840882207425e-18
  outer loop
    vertex 21.901532285302945 1.9999999999999978 22.306454040588083
    vertex 1.4999999999999971 1.9999999999999978 25.000000000000004
    vertex 18.651155217773955 1.9999999999999978 23.312623896090265
  endloop
endfacet
facet normal -2.8667482967134688e-18 1.0 3.510840882207425e-18
  outer loop
    vertex 18.651155217773955 1.9999999999999978 23.312623896090265
    vertex 1.4999999999999971 1.9999999999999978 25.000000000000004
    vertex 15.498921560659516 1.9999999999999973 24.593542250316844
  endloop
endfacet
facet normal -2.8667482967134688e-18 1.0 3.510840882207425e-18
  outer loop
    vertex 15.498921560659516 1.9999999999999973 24.593542250316844
    vertex 1.4999999999999971 1.9999999999999978 25.000000000000004
    vertex 5.9999999999999964 1.9999999999999991 25.000000000000004
  endloop
endfacet
facet normal -2.8667482967134688e-18 1.0 3.510840882207425e-18
  outer loop
    vertex 15.498921560659516 1.9999999999999973 24.593542250316844
    vertex 5.9999999999999964 1.9999999999999991 25.000000000000004
    vertex 12.468007174236645 1.9999999999999971 26.139791532099874
  endloop
endfacet
facet normal -2.8667482967134688e-18 1.0 3.510840882207425e-18
  outer loop
    vertex 12.468007174236645 1.9999999999999971 26.139791532099874
    vertex 5.9999999999999964 1.9999999999999991 25.000000000000004
    vertex 10.307269660186883 1.9999999999999971 26.389723176776215
  endloop
endfacet
facet normal -2.8667482967134688e-18 1.0 3.510840882207425e-18
  outer loop
    vertex 10.307269660186883 1.9999999999999971 26.389723176776215
    vertex 5.9999999999999964 1.9999999999999991 25.000000000000004
    vertex 6.000000000000003 1.9999999999999978 27.000000000000007
  endloop
endfacet
facet normal -2.8667482967134688e-18 1.0 3.510840882207425e-18
  outer loop
    vertex 51.53199282576343 1.9999999999999991 26.139791532099814
    vertex 58.00000000000001 1.9999999999999978 25.000000000000004
    vertex 48.50107843934056 1.9999999999999991 24.593542250316794
  endloop
endfacet
facet normal -2.8667482967134688e-18 1.0 3.510840882207425e-18
  outer loop
    vertex 58.00000000000001 1.9999999999999978 25.000000000000004
    vertex 51.53199282576343 1.9999999999999991 26.139791532099814
    vertex 53.692730339813146 1.9999999999999998 26.389723176776236
  endloop
endfacet
facet normal -2.8667482967134688e-18 1.0 3.510840882207425e-18
  outer loop
    vertex 58.00000000000001 1.9999999999999978 25.000000000000004
    vertex 53.692730339813146 1.9999999999999998 26.389723176776236
    vertex 57.999999999999986 2.000000000000001 27.0
  endloop
endfacet
facet normal -2.8667482967134688e-18 1.0 3.510840882207425e-18
  outer loop
    vertex 62.5 1.9999999999999971 16.000000000000004
    vertex 38.77384466726123 1.999999999999999 21.58243024837005
    vertex 62.5 1.9999999999999978 25.000000000000004
  endloop
endfacet
facet normal -2.8667482967134688e-18 1.0 3.510840882207425e-18
  outer loop
    vertex 38.77384466726123 1.999999999999999 21.58243024837005
    vertex 62.5 1.9999999999999971 16.000000000000004
    vertex 35.399418941907584 1.999999999999999 21.145875688995027
  endloop
endfacet
facet normal -2.8667482967134688e-18 1.0 3.510840882207425e-18
  outer loop
    vertex 35.399418941907584 1.999999999999999 21.145875688995027
    vertex 62.5 1.9999999999999971 16.000000000000004
    vertex 32.00000000000003 1.9999999999999984 20.999999999999996
  endloop
endfacet
facet normal -2.8667482967134688e-18 1.0 3.510840882207425e-18
  outer loop
    vertex 62.5 1.9999999999999978 25.000000000000004
    vertex 38.77384466726123 1.999999999999999 21.58243024837005
    vertex 42.09846771469712 1.999999999999999 22.306454040588044
  endloop
endfacet
facet normal -2.8667482967134688e-18 1.0 3.510840882207425e-18
  outer loop
    vertex 62.5 1.9999999999999978 25.000000000000004
    vertex 42.09846771469712 1.999999999999999 22.306454040588044
    vertex 45.34884478222612 1.9999999999999991 23.312623896090223
  endloop
endfacet
facet normal -2.8667482967134688e-18 1.0 3.510840882207425e-18
  outer loop
    vertex 62.5 1.9999999999999978 25.000000000000004
    vertex 45.34884478222612 1.9999999999999991 23.312623896090223
    vertex 48.50107843934056 1.9999999999999991 24.593542250316794
  endloop
endfacet
facet normal -2.8667482967134688e-18 1.0 3.510840882207425e-18
  outer loop
    vertex 62.5 1.9999999999999978 25.000000000000004
    vertex 48.50107843934056 1.9999999999999991 24.593542250316794
    vertex 58.00000000000001 1.9999999999999978 25.000000000000004
  endloop
endfacet
facet normal -0.4544387180159605 -0.0 0.8907780035272596
  outer loop
    vertex 51.53199282576343 2.530919918086738e-13 26.139791532099814
    vertex 48.50107843934056 1.9999999999999991 24.593542250316794
    vertex 48.50107843934056 2.530919918086738e-13 24.593542250316794
  endloop
endfacet
facet normal -0.4544387180159605 -0.0 0.8907780035272596
  outer loop
    vertex 48.50107843934056 1.9999999999999991 24.593542250316794
    vertex 51.53199282576343 2.530919918086738e-13 26.139791532099814
    vertex 51.53199282576343 1.9999999999999991 26.139791532099814
  endloop
endfacet
facet normal -0.3764586355096647 -2.895711921158544e-16 0.9264334275867864
  outer loop
    vertex 48.50107843934056 2.530919918086738e-13 24.593542250316794
    vertex 45.34884478222612 1.9999999999999991 23.312623896090223
    vertex 45.34884478222612 2.530919918086738e-13 23.312623896090223
  endloop
endfacet
facet normal -0.3764586355096647 -2.895711921158544e-16 0.9264334275867864
  outer loop
    vertex 45.34884478222612 1.9999999999999991 23.312623896090223
    vertex 48.50107843934056 2.530919918086738e-13 24.593542250316794
    vertex 48.50107843934056 1.9999999999999991 24.593542250316794
  endloop
endfacet
facet normal -0.2957107528699745 -2.9344452719126806e-16 0.9552775254537673
  outer loop
    vertex 45.34884478222612 2.530919918086738e-13 23.312623896090223
    vertex 42.09846771469712 1.999999999999999 22.306454040588044
    vertex 42.09846771469712 2.527394959983553e-13 22.306454040588044
  endloop
endfacet
facet normal -0.2957107528699745 -2.9344452719126806e-16 0.9552775254537673
  outer loop
    vertex 42.09846771469712 1.999999999999999 22.306454040588044
    vertex 45.34884478222612 2.530919918086738e-13 23.312623896090223
    vertex 45.34884478222612 1.9999999999999991 23.312623896090223
  endloop
endfacet
facet normal -0.21278874488413152 -2.951603986707021e-16 0.9770982294788156
  outer loop
    vertex 42.09846771469712 2.527394959983553e-13 22.306454040588044
    vertex 38.77384466726123 1.999999999999999 21.58243024837005
    vertex 38.77384466726123 2.527394959983553e-13 21.58243024837005
  endloop
endfacet
facet normal -0.21278874488413152 -2.951603986707021e-16 0.9770982294788156
  outer loop
    vertex 38.77384466726123 1.999999999999999 21.58243024837005
    vertex 42.09846771469712 2.527394959983553e-13 22.306454040588044
    vertex 42.09846771469712 1.999999999999999 22.306454040588044
  endloop
endfacet
facet normal -0.12830227094924912 -2.947061911195201e-16 0.9917351094265372
  outer loop
    vertex 38.77384466726123 2.527394959983553e-13 21.58243024837005
    vertex 35.399418941907584 1.999999999999999 21.145875688995027
    vertex 35.399418941907584 2.527394959983553e-13 21.145875688995027
  endloop
endfacet
facet normal -0.12830227094924912 -2.947061911195201e-16 0.9917351094265372
  outer loop
    vertex 35.399418941907584 1.999999999999999 21.145875688995027
    vertex 38.77384466726123 2.527394959983553e-13 21.58243024837005
    vertex 38.77384466726123 1.999999999999999 21.58243024837005
  endloop
endfacet
facet normal -0.04287249273296662 -2.9208524396363004e-16 0.9990805519911103
  outer loop
    vertex 35.399418941907584 2.527394959983553e-13 21.145875688995027
    vertex 32.00000000000003 1.9999999999999984 20.999999999999996
    vertex 32.00000000000003 2.523870001880368e-13 20.999999999999996
  endloop
endfacet
facet normal -0.04287249273296662 -2.9208524396363004e-16 0.9990805519911103
  outer loop
    vertex 32.00000000000003 1.9999999999999984 20.999999999999996
    vertex 35.399418941907584 2.527394959983553e-13 21.145875688995027
    vertex 35.399418941907584 1.999999999999999 21.145875688995027
  endloop
endfacet
facet normal 0.04287249273296993 -2.8731682693734903e-16 0.9990805519911103
  outer loop
    vertex 32.00000000000003 2.523870001880368e-13 20.999999999999996
    vertex 28.60058105809248 1.9999999999999984 21.14587568899504
    vertex 28.60058105809248 2.523870001880368e-13 21.14587568899504
  endloop
endfacet
facet normal 0.04287249273296993 -2.8731682693734903e-16 0.9990805519911103
  outer loop
    vertex 28.60058105809248 1.9999999999999984 21.14587568899504
    vertex 32.00000000000003 2.523870001880368e-13 20.999999999999996
    vertex 32.00000000000003 1.9999999999999984 20.999999999999996
  endloop
endfacet
facet normal 0.128302270949254 -2.804359984084143e-16 0.9917351094265365
  outer loop
    vertex 28.60058105809248 2.523870001880368e-13 21.14587568899504
    vertex 25.22615533273883 1.999999999999998 21.582430248370077
    vertex 25.22615533273883 2.5203450437771835e-13 21.582430248370077
  endloop
endfacet
facet normal 0.128302270949254 -2.804359984084143e-16 0.9917351094265365
  outer loop
    vertex 25.22615533273883 1.999999999999998 21.582430248370077
    vertex 28.60058105809248 2.523870001880368e-13 21.14587568899504
    vertex 28.60058105809248 1.9999999999999984 21.14587568899504
  endloop
endfacet
facet normal 0.212788744884135 -2.714933476217619e-16 0.9770982294788148
  outer loop
    vertex 25.22615533273883 2.5203450437771835e-13 21.582430248370077
    vertex 21.901532285302945 1.9999999999999978 22.306454040588083
    vertex 21.901532285302945 2.5168200856739984e-13 22.306454040588083
  endloop
endfacet
facet normal 0.212788744884135 -2.714933476217619e-16 0.9770982294788148
  outer loop
    vertex 21.901532285302945 1.9999999999999978 22.306454040588083
    vertex 25.22615533273883 2.5203450437771835e-13 21.582430248370077
    vertex 25.22615533273883 1.999999999999998 21.582430248370077
  endloop
endfacet
facet normal 0.2957107528699745 -2.6055462275715433e-16 0.9552775254537673
  outer loop
    vertex 21.901532285302945 2.5168200856739984e-13 22.306454040588083
    vertex 18.651155217773955 1.9999999999999978 23.312623896090265
    vertex 18.651155217773955 2.5168200856739984e-13 23.312623896090265
  endloop
endfacet
facet normal 0.2957107528699745 -2.6055462275715433e-16 0.9552775254537673
  outer loop
    vertex 18.651155217773955 1.9999999999999978 23.312623896090265
    vertex 21.901532285302945 2.5168200856739984e-13 22.306454040588083
    vertex 21.901532285302945 1.9999999999999978 22.306454040588083
  endloop
endfacet
facet normal 0.37645863550966874 -2.4770024753524183e-16 0.9264334275867849
  outer loop
    vertex 18.651155217773955 2.5168200856739984e-13 23.312623896090265
    vertex 15.498921560659516 1.9999999999999973 24.593542250316844
    vertex 15.498921560659516 2.513295127570814e-13 24.593542250316844
  endloop
endfacet
facet normal 0.37645863550966874 -2.4770024753524183e-16 0.9264334275867849
  outer loop
    vertex 15.498921560659516 1.9999999999999973 24.593542250316844
    vertex 18.651155217773955 2.5168200856739984e-13 23.312623896090265
    vertex 18.651155217773955 1.9999999999999978 23.312623896090265
  endloop
endfacet
facet normal 0.4544387180159624 -2.532052231668499e-18 0.8907780035272586
  outer loop
    vertex 15.498921560659516 2.513295127570814e-13 24.593542250316844
    vertex 12.468007174236645 1.9999999999999971 26.139791532099874
    vertex 12.468007174236645 2.509770169467629e-13 26.139791532099874
  endloop
endfacet
facet normal 0.4544387180159624 -2.532052231668499e-18 0.8907780035272586
  outer loop
    vertex 12.468007174236645 1.9999999999999971 26.139791532099874
    vertex 15.498921560659516 2.513295127570814e-13 24.593542250316844
    vertex 15.498921560659516 1.9999999999999973 24.593542250316844
  endloop
endfacet
facet normal 0.0 1.0 0.0
  outer loop
    vertex 57.999999999999986 62.0 27.0
    vertex 62.5 62.0 25.000000000000004
    vertex 57.999999999999986 62.0 25.000000000000004
  endloop
endfacet
facet normal 0.0 1.0 0.0
  outer loop
    vertex 58.499999999999986 62.0 16.000000000000004
    vertex 59.99999999999998 62.0 2.0000000000000018
    vertex 58.499999999999986 62.0 2.0000000000000018
  endloop
endfacet
facet normal 0.0 1.0 0.0
  outer loop
    vertex 59.99999999999998 62.0 2.0000000000000018
    vertex 58.499999999999986 62.0 16.000000000000004
    vertex 59.99999999999998 62.0 14.000000000000005
  endloop
endfacet
facet normal 0.0 1.0 0.0
  outer loop
    vertex 59.99999999999998 62.0 14.000000000000005
    vertex 58.499999999999986 62.0 16.000000000000004
    vertex 63.99999999999999 62.0 14.000000000000005
  endloop
endfacet
facet normal 0.0 1.0 0.0
  outer loop
    vertex 63.99999999999999 62.0 14.000000000000005
    vertex 58.499999999999986 62.0 16.000000000000004
    vertex 62.5 62.0 16.000000000000004
  endloop
endfacet
facet normal 0.0 1.0 0.0
  outer loop
    vertex 63.99999999999999 62.0 14.000000000000005
    vertex 62.5 62.0 16.000000000000004
    vertex 63.99999999999999 62.0 27.0
  endloop
endfacet
facet normal 0.0 1.0 0.0
  outer loop
    vertex 63.99999999999999 62.0 27.0
    vertex 62.5 62.0 16.000000000000004
    vertex 62.5 62.0 25.000000000000004
  endloop
endfacet
facet normal 0.0 1.0 0.0
  outer loop
    vertex 63.99999999999999 62.0 27.0
    vertex 62.5 62.0 25.000000000000004
    vertex 57.999999999999986 62.0 27.0
  endloop
endfacet
facet normal -2.349972068789919e-16 -0.0 1.0
  outer loop
    vertex 59.99999999999998 62.0 2.0000000000000018
    vertex 58.499999999999986 98.0 2.0000000000000018
    vertex 58.499999999999986 62.0 2.0000000000000018
  endloop
endfacet
facet normal -2.349972068789919e-16 -0.0 1.0
  outer loop
    vertex 58.499999999999986 98.0 2.0000000000000018
    vertex 59.99999999999998 62.0 2.0000000000000018
    vertex 59.99999999999998 98.0 2.0000000000000018
  endloop
endfacet
endsolid Tapa_00
